<svg width="1920" height="1280" viewBox="0 0 1920 1280" fill="none" xmlns="http://www.w3.org/2000/svg">
  <defs>
    <linearGradient id="bg" x1="960" y1="0" x2="960" y2="1280" gradientUnits="userSpaceOnUse">
      <stop stop-color="#09101B"/>
      <stop offset="0.58" stop-color="#0A0D12"/>
      <stop offset="1" stop-color="#050608"/>
    </linearGradient>
    <radialGradient id="moon" cx="0" cy="0" r="1" gradientUnits="userSpaceOnUse" gradientTransform="translate(1020 300) rotate(90) scale(240)">
      <stop stop-color="#F3ECE2"/>
      <stop offset="0.45" stop-color="#D9D0C0"/>
      <stop offset="0.7" stop-color="#716B63" stop-opacity="0.35"/>
      <stop offset="1" stop-color="#0B0D10" stop-opacity="0"/>
    </radialGradient>
    <radialGradient id="flare" cx="0" cy="0" r="1" gradientUnits="userSpaceOnUse" gradientTransform="translate(1010 308) rotate(90) scale(340)">
      <stop stop-color="#E8E3D8" stop-opacity="0.18"/>
      <stop offset="1" stop-color="#0B0D10" stop-opacity="0"/>
    </radialGradient>
    <linearGradient id="castle" x1="960" y1="290" x2="960" y2="900" gradientUnits="userSpaceOnUse">
      <stop stop-color="#13161C"/>
      <stop offset="1" stop-color="#060709"/>
    </linearGradient>
    <linearGradient id="terrain" x1="960" y1="774" x2="960" y2="1280" gradientUnits="userSpaceOnUse">
      <stop stop-color="#111418"/>
      <stop offset="1" stop-color="#050607"/>
    </linearGradient>
    <linearGradient id="emberPath" x1="960" y1="752" x2="960" y2="1160" gradientUnits="userSpaceOnUse">
      <stop stop-color="#342117"/>
      <stop offset="0.45" stop-color="#6E351B"/>
      <stop offset="0.72" stop-color="#2D1910"/>
      <stop offset="1" stop-color="#09090A"/>
    </linearGradient>
    <filter id="softBlur" x="-120" y="-120" width="2160" height="1520" filterUnits="userSpaceOnUse" color-interpolation-filters="sRGB">
      <feGaussianBlur stdDeviation="42"/>
    </filter>
    <filter id="moonGlow" x="528" y="-60" width="964" height="964" filterUnits="userSpaceOnUse" color-interpolation-filters="sRGB">
      <feGaussianBlur stdDeviation="42"/>
    </filter>
  </defs>

  <rect width="1920" height="1280" fill="url(#bg)"/>
  <ellipse cx="740" cy="184" rx="420" ry="164" fill="#21303B" fill-opacity="0.08"/>
  <ellipse cx="1260" cy="226" rx="360" ry="146" fill="#1A2432" fill-opacity="0.1"/>

  <g filter="url(#moonGlow)">
    <circle cx="1024" cy="296" r="224" fill="url(#flare)"/>
  </g>
  <circle cx="1024" cy="296" r="184" fill="url(#moon)" opacity="0.95"/>
  <circle cx="1024" cy="296" r="184" fill="#E7E0D1" fill-opacity="0.08"/>

  <g opacity="0.42" filter="url(#softBlur)">
    <ellipse cx="620" cy="336" rx="300" ry="94" fill="#A6ABB3" fill-opacity="0.18"/>
    <ellipse cx="1272" cy="342" rx="340" ry="108" fill="#A6ABB3" fill-opacity="0.14"/>
    <ellipse cx="980" cy="426" rx="420" ry="110" fill="#69717A" fill-opacity="0.12"/>
  </g>

  <g opacity="0.98">
    <path d="M248 786L398 632L458 654L548 548L628 574L676 488L730 548L774 416L834 458L894 316L924 334L962 246L990 258L1048 164L1080 184L1122 310L1162 292L1208 392L1248 364L1310 512L1368 470L1452 602L1512 582L1662 782V886H248V786Z" fill="url(#castle)"/>
    <path d="M778 416H826V540H778V416Z" fill="#050608"/>
    <path d="M918 334H960V536H918V334Z" fill="#050608"/>
    <path d="M982 258H1020V572H982V258Z" fill="#050608"/>
    <path d="M1074 184H1114V564H1074V184Z" fill="#050608"/>
    <path d="M1206 392H1246V620H1206V392Z" fill="#050608"/>
    <path d="M770 540H1256V636H770V540Z" fill="#0A0B0C"/>
    <path d="M714 636H1312V706H714V636Z" fill="#08090B"/>
  </g>

  <g opacity="0.38">
    <path d="M272 896L502 730L686 818L872 684L1022 742L1214 640L1416 768L1648 684L1846 868V1280H272V896Z" fill="#0A0D10"/>
  </g>

  <path d="M0 982L188 932L332 970L486 888L676 1012L794 944L944 1040L1086 966L1204 1032L1364 924L1562 1026L1742 960L1920 1018V1280H0V982Z" fill="url(#terrain)"/>
  <path d="M0 1060L178 1038L354 1114L508 1034L704 1170L888 1088L1014 1168L1172 1082L1348 1174L1558 1036L1744 1092L1920 1062V1280H0V1060Z" fill="#060708"/>

  <path d="M736 780C816 758 884 744 938 744C1034 744 1102 774 1174 782C1270 792 1360 758 1464 724L1534 758C1390 846 1300 918 1220 1028C1188 1072 1160 1112 1136 1160H780C804 1098 842 1034 904 956C960 886 1002 830 1112 762C1018 790 950 824 872 902C826 950 790 998 744 1072L694 1064C754 968 796 906 862 846C922 790 980 752 1074 716C958 730 860 748 724 820L736 780Z" fill="url(#emberPath)" fill-opacity="0.92"/>
  <ellipse cx="1018" cy="864" rx="86" ry="58" fill="#C96A2B" fill-opacity="0.18"/>
  <ellipse cx="1018" cy="864" rx="38" ry="24" fill="#F3B479" fill-opacity="0.22"/>

  <g opacity="0.65">
    <path d="M430 300C516 254 606 248 676 266C622 280 590 302 558 334C634 310 712 314 760 350C702 350 646 364 594 394C640 396 700 418 730 458C654 438 588 438 520 458C462 474 420 508 386 556C380 482 376 434 400 388C414 358 426 336 430 300Z" fill="#0A0C10"/>
  </g>

  <g opacity="0.86">
    <circle cx="232" cy="938" r="3" fill="#F3B479"/>
    <circle cx="308" cy="884" r="3.5" fill="#E79655"/>
    <circle cx="472" cy="984" r="4" fill="#C96A2B"/>
    <circle cx="624" cy="930" r="3.5" fill="#F3B479"/>
    <circle cx="830" cy="872" r="4" fill="#F3B479"/>
    <circle cx="932" cy="938" r="5" fill="#C96A2B"/>
    <circle cx="1082" cy="902" r="4" fill="#F3B479"/>
    <circle cx="1218" cy="842" r="4" fill="#E79655"/>
    <circle cx="1374" cy="926" r="4" fill="#F3B479"/>
    <circle cx="1546" cy="874" r="3.5" fill="#C96A2B"/>
    <circle cx="1698" cy="952" r="4" fill="#F3B479"/>
  </g>

  <rect width="1920" height="1280" fill="url(#bg)" opacity="0.14"/>
</svg>
