<svg width="1400" height="880" viewBox="0 0 1400 880" fill="none" xmlns="http://www.w3.org/2000/svg">
  <rect width="1400" height="880" rx="32" fill="#0B0D10"/>
  <rect x="56" y="56" width="1288" height="768" rx="24" stroke="#8C7751" stroke-opacity=".22" stroke-width="2"/>
  <rect x="124" y="110" width="1152" height="326" rx="26" fill="#101319"/>
  <circle cx="738" cy="214" r="112" fill="#E4DED4" fill-opacity=".14"/>
  <path d="M452 382L544 304L588 326L636 252L676 274L720 196L754 212L814 318L856 298L944 382V414H452V382Z" fill="#07080A"/>
  <rect x="192" y="506" width="304" height="236" rx="22" fill="#131820" stroke="#8C7751" stroke-opacity=".28"/>
  <rect x="548" y="462" width="304" height="280" rx="22" fill="#151A22" stroke="#C96A2B" stroke-opacity=".34"/>
  <rect x="904" y="506" width="304" height="236" rx="22" fill="#131820" stroke="#8C7751" stroke-opacity=".28"/>
  <circle cx="700" cy="670" r="18" fill="#F3B479"/>
  <path d="M226 612H464" stroke="#D8D3C8" stroke-opacity=".12" stroke-width="2"/>
  <path d="M584 608H816" stroke="#D8D3C8" stroke-opacity=".12" stroke-width="2"/>
  <path d="M938 612H1174" stroke="#D8D3C8" stroke-opacity=".12" stroke-width="2"/>
</svg>
