<svg width="1200" height="1440" viewBox="0 0 1200 1440" fill="none" xmlns="http://www.w3.org/2000/svg">
  <defs>
    <linearGradient id="bg" x1="600" y1="0" x2="600" y2="1440" gradientUnits="userSpaceOnUse">
      <stop stop-color="#11161C"/>
      <stop offset="1" stop-color="#08090B"/>
    </linearGradient>
    <radialGradient id="glow" cx="0" cy="0" r="1" gradientUnits="userSpaceOnUse" gradientTransform="translate(600 960) rotate(90) scale(220)">
      <stop stop-color="#C96A2B" stop-opacity=".32"/>
      <stop offset="1" stop-color="#C96A2B" stop-opacity="0"/>
    </radialGradient>
  </defs>
  <rect width="1200" height="1440" fill="url(#bg)"/>
  <rect x="84" y="84" width="1032" height="1272" rx="40" stroke="#8C7751" stroke-opacity=".22" stroke-width="2"/>
  <circle cx="600" cy="698" r="220" fill="url(#glow)"/>
  <circle cx="600" cy="698" r="192" stroke="#D8D3C8" stroke-opacity=".18" stroke-width="2"/>
  <circle cx="600" cy="698" r="138" stroke="#8C7751" stroke-opacity=".3" stroke-width="2"/>
  <path d="M508 938V590L552 544L596 578L640 544L692 590V938H508Z" fill="#111318" stroke="#D8D3C8" stroke-opacity=".24" stroke-width="2"/>
  <path d="M556 540V442M648 540V442M602 470H700" stroke="#8C7751" stroke-width="8" stroke-linecap="round"/>
  <rect x="564" y="694" width="72" height="244" fill="#090B0D"/>
  <circle cx="600" cy="982" r="16" fill="#F3B479"/>
  <path d="M250 1110H950" stroke="#8C7751" stroke-opacity=".3" stroke-width="2"/>
  <path d="M314 1184H886" stroke="#D8D3C8" stroke-opacity=".12" stroke-width="2"/>
</svg>
