<svg width="1200" height="1440" viewBox="0 0 1200 1440" fill="none" xmlns="http://www.w3.org/2000/svg">
  <defs>
    <linearGradient id="bg" x1="600" y1="0" x2="600" y2="1440" gradientUnits="userSpaceOnUse">
      <stop stop-color="#10131A"/>
      <stop offset=".55" stop-color="#090B10"/>
      <stop offset="1" stop-color="#050607"/>
    </linearGradient>
    <radialGradient id="moon" cx="0" cy="0" r="1" gradientUnits="userSpaceOnUse" gradientTransform="translate(600 498) rotate(90) scale(180)">
      <stop stop-color="#DDE4F1"/>
      <stop offset=".6" stop-color="#53647B" stop-opacity=".42"/>
      <stop offset="1" stop-color="#53647B" stop-opacity="0"/>
    </radialGradient>
  </defs>
  <rect width="1200" height="1440" fill="url(#bg)"/>
  <rect x="84" y="84" width="1032" height="1272" rx="40" stroke="#8C7751" stroke-opacity=".22" stroke-width="2"/>
  <circle cx="600" cy="498" r="174" fill="url(#moon)"/>
  <circle cx="600" cy="742" r="254" stroke="#D8D3C8" stroke-opacity=".18" stroke-width="2"/>
  <circle cx="600" cy="742" r="188" stroke="#8C7751" stroke-opacity=".22" stroke-width="2"/>
  <circle cx="600" cy="742" r="126" stroke="#D5DDEB" stroke-opacity=".35" stroke-width="2"/>
  <path d="M600 626C672 676 708 730 708 780C708 850 664 914 600 1002C536 914 492 850 492 780C492 730 528 676 600 626Z" fill="#12161D" stroke="#D8D3C8" stroke-opacity=".22" stroke-width="2"/>
  <circle cx="600" cy="806" r="22" fill="#D5DDEB"/>
  <path d="M420 1104C512 1030 574 998 600 998C626 998 688 1030 780 1104" stroke="#8C7751" stroke-opacity=".36" stroke-width="4" stroke-linecap="round"/>
  <path d="M470 1178C542 1126 586 1100 600 1100C614 1100 658 1126 730 1178" stroke="#D8D3C8" stroke-opacity=".16" stroke-width="3" stroke-linecap="round"/>
</svg>
