<svg
  id="alcheEndmarkSvg"
  xmlns="http://www.w3.org/2000/svg"
  viewBox="0 0 1920 1080"
  fill="none"
>
  <defs>
    <radialGradient id="alcheEndmarkGlowBlue" cx="0" cy="0" r="1" gradientUnits="userSpaceOnUse" gradientTransform="translate(960 560) rotate(90) scale(380 650)">
      <stop offset="0" stop-color="#2839ff" stop-opacity="0.42" />
      <stop offset="0.56" stop-color="#16227a" stop-opacity="0.18" />
      <stop offset="1" stop-color="#000000" stop-opacity="0" />
    </radialGradient>
    <radialGradient id="alcheEndmarkGlowRed" cx="0" cy="0" r="1" gradientUnits="userSpaceOnUse" gradientTransform="translate(1118 570) rotate(90) scale(320 520)">
      <stop offset="0" stop-color="#aa1f32" stop-opacity="0.3" />
      <stop offset="0.58" stop-color="#4f0813" stop-opacity="0.12" />
      <stop offset="1" stop-color="#000000" stop-opacity="0" />
    </radialGradient>
    <clipPath id="alcheEndmarkFillRevealClip">
      <rect id="fillRevealRect" x="0" y="0" width="0" height="1080" />
    </clipPath>
  </defs>

  <rect width="1920" height="1080" fill="#000000" />

  <g id="bgGlow">
    <ellipse cx="960" cy="562" rx="610" ry="370" fill="url(#alcheEndmarkGlowBlue)" />
    <ellipse cx="1114" cy="566" rx="520" ry="310" fill="url(#alcheEndmarkGlowRed)" />
  </g>

  <g id="grid" stroke="#f7f8fb" stroke-opacity="0.26" stroke-width="1.3">
    <line x1="0" y1="344" x2="1920" y2="344" />
    <line x1="0" y1="420" x2="1920" y2="420" />
    <line x1="0" y1="540" x2="1920" y2="540" />
    <line x1="0" y1="660" x2="1920" y2="660" />
    <line x1="0" y1="760" x2="1920" y2="760" />
    <line x1="0" y1="900" x2="1920" y2="900" />
    <line x1="120" y1="0" x2="120" y2="1080" />
    <line x1="300" y1="0" x2="300" y2="1080" />
    <line x1="510" y1="0" x2="510" y2="1080" />
    <line x1="690" y1="0" x2="690" y2="1080" />
    <line x1="850" y1="0" x2="850" y2="1080" />
    <line x1="1040" y1="0" x2="1040" y2="1080" />
    <line x1="1220" y1="0" x2="1220" y2="1080" />
    <line x1="1400" y1="0" x2="1400" y2="1080" />
    <line x1="1580" y1="0" x2="1580" y2="1080" />
    <line x1="1760" y1="0" x2="1760" y2="1080" />
  </g>

  <g id="guides" fill="none" stroke="#f7f8fb" stroke-width="1.5" stroke-linecap="round" stroke-linejoin="round">
    <g id="guidePersistent" stroke-opacity="0.42">
      <line data-draw="guide" x1="94" y1="-18" x2="628" y2="1098" />
      <line data-draw="guide" x1="458" y1="1098" x2="1124" y2="-18" />
      <line data-draw="guide" x1="1392" y1="-18" x2="1840" y2="1098" />
      <line data-draw="guide" x1="86" y1="760" x2="1834" y2="760" />
      <line data-draw="guide" x1="180" y1="344" x2="1740" y2="344" />
      <circle data-draw="guide" cx="960" cy="552" r="214" stroke-dasharray="9 10" stroke-opacity="0.38" />
    </g>
    <g id="guideFade" stroke-opacity="0.3">
      <line data-draw="guide" x1="180" y1="420" x2="1740" y2="420" />
      <line data-draw="guide" x1="180" y1="540" x2="1740" y2="540" />
      <line data-draw="guide" x1="180" y1="660" x2="1740" y2="660" />
      <line data-draw="guide" x1="300" y1="344" x2="300" y2="760" />
      <line data-draw="guide" x1="510" y1="344" x2="510" y2="760" />
      <line data-draw="guide" x1="690" y1="344" x2="690" y2="760" />
      <line data-draw="guide" x1="850" y1="344" x2="850" y2="760" />
      <line data-draw="guide" x1="1040" y1="344" x2="1040" y2="760" />
      <line data-draw="guide" x1="1220" y1="344" x2="1220" y2="760" />
      <line data-draw="guide" x1="1400" y1="344" x2="1400" y2="760" />
      <line data-draw="guide" x1="1580" y1="344" x2="1580" y2="760" />
      <rect data-draw="guide" x="130" y="344" width="1660" height="416" />
    </g>
  </g>

  <g
    id="outline"
    stroke="#ffffff"
    stroke-opacity="0.92"
    stroke-width="2.4"
    stroke-linecap="round"
    stroke-linejoin="round"
  >
    <text
      x="960"
      y="565"
      text-anchor="middle"
      dominant-baseline="middle"
      font-family="MoonflowEndmark, 'Space Grotesk', Arial, sans-serif"
      font-size="258"
      font-weight="500"
      letter-spacing="-8"
      textLength="1660"
      lengthAdjust="spacingAndGlyphs"
      fill="none"
    >MOONFLOW</text>
    <path data-draw="outline" d="M130 344 H1790" />
    <path data-draw="outline" d="M130 760 H1790" />
    <path data-draw="outline" d="M210 420 H1710" />
    <path data-draw="outline" d="M210 660 H1710" />
    <path data-draw="outline" d="M300 344 V760" />
    <path data-draw="outline" d="M510 344 V760" />
    <path data-draw="outline" d="M690 344 V760" />
    <path data-draw="outline" d="M850 344 V760" />
    <path data-draw="outline" d="M1040 344 V760" />
    <path data-draw="outline" d="M1220 344 V760" />
    <path data-draw="outline" d="M1400 344 V760" />
    <path data-draw="outline" d="M1580 344 V760" />
  </g>

  <g id="fill" clip-path="url(#alcheEndmarkFillRevealClip)">
    <text
      x="960"
      y="565"
      text-anchor="middle"
      dominant-baseline="middle"
      font-family="MoonflowEndmark, 'Space Grotesk', Arial, sans-serif"
      font-size="258"
      font-weight="500"
      letter-spacing="-8"
      textLength="1660"
      lengthAdjust="spacingAndGlyphs"
      fill="#f5f6fb"
    >MOONFLOW</text>
  </g>
</svg>
